<mxfile host="65bd71144e">
    <diagram id="W1KDp-vNrVQiSma6TIPK" name="Overview">
        <mxGraphModel dx="2530" dy="1098" grid="1" gridSize="10" guides="1" tooltips="1" connect="1" arrows="1" fold="1" page="1" pageScale="1" pageWidth="827" pageHeight="1169" math="0" shadow="0">
            <root>
                <mxCell id="0"/>
                <mxCell id="1" parent="0"/>
                <mxCell id="24" value="" style="rounded=1;whiteSpace=wrap;html=1;dashed=1;fillColor=default;" parent="1" vertex="1">
                    <mxGeometry x="30" y="110" width="1590" height="390" as="geometry"/>
                </mxCell>
                <mxCell id="71" value="&lt;i&gt;&lt;font style=&quot;font-size: 14px;&quot;&gt;AWS EC2 instance&lt;/font&gt;&lt;/i&gt;" style="rounded=1;whiteSpace=wrap;html=1;fillColor=none;dashed=1;dashPattern=8 8;verticalAlign=bottom;" parent="1" vertex="1">
                    <mxGeometry x="1150" y="180" width="420" height="290" as="geometry"/>
                </mxCell>
                <mxCell id="52" value="&lt;font&gt;&lt;i&gt;Google VM Instance&lt;/i&gt;&lt;/font&gt;" style="rounded=1;whiteSpace=wrap;html=1;verticalAlign=bottom;gradientColor=none;dashed=1;dashPattern=8 8;fontSize=14;" parent="1" vertex="1">
                    <mxGeometry x="570" y="180" width="510" height="290" as="geometry"/>
                </mxCell>
                <mxCell id="27" value="System Design" style="text;html=1;align=center;verticalAlign=middle;resizable=0;points=[];autosize=1;strokeColor=none;fillColor=none;dashed=1;fontStyle=1;fontSize=18;" parent="1" vertex="1">
                    <mxGeometry x="755" y="120" width="140" height="40" as="geometry"/>
                </mxCell>
                <mxCell id="13" value="&lt;span style=&quot;color: rgb(0, 0, 0);&quot;&gt;Desktop users&lt;/span&gt;" style="aspect=fixed;perimeter=ellipsePerimeter;html=1;align=center;shadow=0;dashed=0;spacingTop=3;image;image=img/lib/active_directory/laptop_client.svg;fontSize=14;" parent="1" vertex="1">
                    <mxGeometry x="80" y="220" width="45" height="50" as="geometry"/>
                </mxCell>
                <mxCell id="62" value="" style="edgeStyle=orthogonalEdgeStyle;html=1;entryX=0.026;entryY=0.68;entryDx=0;entryDy=0;entryPerimeter=0;" parent="1" source="28" target="33" edge="1">
                    <mxGeometry relative="1" as="geometry">
                        <mxPoint x="180" y="320" as="targetPoint"/>
                        <Array as="points">
                            <mxPoint x="160" y="350"/>
                            <mxPoint x="160" y="310"/>
                            <mxPoint x="231" y="310"/>
                        </Array>
                    </mxGeometry>
                </mxCell>
                <mxCell id="28" value="Mobile users" style="html=1;verticalLabelPosition=bottom;align=center;labelBackgroundColor=#ffffff;verticalAlign=top;strokeWidth=2;strokeColor=#0080F0;shadow=0;dashed=0;shape=mxgraph.ios7.icons.smartphone;fontSize=14;" parent="1" vertex="1">
                    <mxGeometry x="93.5" y="335" width="18" height="30" as="geometry"/>
                </mxCell>
                <mxCell id="15" value="" style="edgeStyle=orthogonalEdgeStyle;html=1;entryX=-0.044;entryY=0.268;entryDx=0;entryDy=0;entryPerimeter=0;exitX=1;exitY=0.5;exitDx=0;exitDy=0;" parent="1" source="13" target="33" edge="1">
                    <mxGeometry relative="1" as="geometry">
                        <mxPoint x="10" y="245" as="sourcePoint"/>
                        <mxPoint x="448.5" y="300" as="targetPoint"/>
                        <Array as="points">
                            <mxPoint x="160" y="245"/>
                            <mxPoint x="160" y="288"/>
                        </Array>
                    </mxGeometry>
                </mxCell>
                <mxCell id="14" value="UI (Nuxt SPA)&lt;br&gt;&lt;b&gt;Focus Loop Client Web&lt;/b&gt;" style="outlineConnect=0;dashed=0;verticalLabelPosition=bottom;verticalAlign=top;align=center;html=1;shape=mxgraph.aws3.android;fillColor=#205E00;gradientColor=none;strokeColor=default;fontSize=14;" parent="1" vertex="1">
                    <mxGeometry x="950" y="265" width="61.25" height="70" as="geometry"/>
                </mxCell>
                <mxCell id="16" value="&lt;font&gt;Node.js (+ express)&lt;br&gt;&lt;b&gt;Focus Loop Server&lt;/b&gt;&lt;/font&gt;" style="outlineConnect=0;dashed=0;verticalLabelPosition=bottom;verticalAlign=top;align=center;html=1;shape=mxgraph.aws3.android;fillColor=#8CC64F;gradientColor=none;fontSize=14;" parent="1" vertex="1">
                    <mxGeometry x="1260" y="265" width="61.25" height="70" as="geometry"/>
                </mxCell>
                <mxCell id="18" value="MongoDB" style="dashed=0;outlineConnect=0;html=1;align=center;labelPosition=center;verticalLabelPosition=bottom;verticalAlign=top;shape=mxgraph.weblogos.mongodb;fontSize=14;" parent="1" vertex="1">
                    <mxGeometry x="1470" y="209.29999999999995" width="27.42" height="60.7" as="geometry"/>
                </mxCell>
                <mxCell id="22" style="edgeStyle=orthogonalEdgeStyle;html=1;exitX=1;exitY=0.5;exitDx=0;exitDy=0;exitPerimeter=0;startArrow=classic;startFill=1;entryX=0;entryY=0.58;entryDx=0;entryDy=0;entryPerimeter=0;endArrow=classic;endFill=1;" parent="1" source="16" target="18" edge="1">
                    <mxGeometry relative="1" as="geometry">
                        <Array as="points">
                            <mxPoint x="1390" y="300"/>
                            <mxPoint x="1390" y="245"/>
                        </Array>
                    </mxGeometry>
                </mxCell>
                <mxCell id="19" value="Redis" style="sketch=0;aspect=fixed;html=1;points=[];align=center;image;fontSize=14;image=img/lib/mscae/Cache_Redis_Product.svg;" parent="1" vertex="1">
                    <mxGeometry x="1459.9" y="350" width="47.62" height="40" as="geometry"/>
                </mxCell>
                <mxCell id="20" style="edgeStyle=orthogonalEdgeStyle;html=1;exitX=1;exitY=0.5;exitDx=0;exitDy=0;exitPerimeter=0;entryX=-0.014;entryY=0.503;entryDx=0;entryDy=0;entryPerimeter=0;strokeColor=none;startArrow=classic;startFill=1;" parent="1" source="16" target="19" edge="1">
                    <mxGeometry relative="1" as="geometry"/>
                </mxCell>
                <mxCell id="21" style="edgeStyle=orthogonalEdgeStyle;html=1;exitX=1;exitY=0.5;exitDx=0;exitDy=0;exitPerimeter=0;entryX=0.005;entryY=0.548;entryDx=0;entryDy=0;entryPerimeter=0;startArrow=classic;startFill=1;" parent="1" source="16" target="19" edge="1">
                    <mxGeometry relative="1" as="geometry">
                        <Array as="points">
                            <mxPoint x="1390" y="300"/>
                            <mxPoint x="1390" y="372"/>
                        </Array>
                    </mxGeometry>
                </mxCell>
                <mxCell id="37" value="" style="edgeStyle=none;html=1;" parent="1" source="33" target="39" edge="1">
                    <mxGeometry relative="1" as="geometry">
                        <mxPoint x="960" y="180" as="targetPoint"/>
                    </mxGeometry>
                </mxCell>
                <mxCell id="43" value="Loads&lt;div&gt;&lt;b&gt;focus-loop.ton&lt;/b&gt;&lt;/div&gt;" style="edgeLabel;html=1;align=center;verticalAlign=middle;resizable=0;points=[];fontSize=14;" parent="37" vertex="1" connectable="0">
                    <mxGeometry x="-0.1713" y="2" relative="1" as="geometry">
                        <mxPoint x="-12" y="-33" as="offset"/>
                    </mxGeometry>
                </mxCell>
                <mxCell id="33" value="&lt;b&gt;Telegram App&lt;/b&gt;" style="image;sketch=0;aspect=fixed;html=1;points=[];align=center;fontSize=14;image=img/lib/mscae/App_Service_Mobile_App.svg;" parent="1" vertex="1">
                    <mxGeometry x="230" y="275" width="34" height="50" as="geometry"/>
                </mxCell>
                <mxCell id="40" value="" style="edgeStyle=none;html=1;entryX=-0.009;entryY=0.466;entryDx=0;entryDy=0;entryPerimeter=0;" parent="1" source="39" target="51" edge="1">
                    <mxGeometry relative="1" as="geometry"/>
                </mxCell>
                <mxCell id="44" value="Proxies&lt;div&gt;requests&lt;/div&gt;" style="edgeLabel;html=1;align=center;verticalAlign=middle;resizable=0;points=[];fontSize=14;fontStyle=0" parent="40" vertex="1" connectable="0">
                    <mxGeometry x="-0.2586" y="1" relative="1" as="geometry">
                        <mxPoint x="19" y="-28" as="offset"/>
                    </mxGeometry>
                </mxCell>
                <mxCell id="39" value="&lt;b&gt;TON WWW&lt;/b&gt;&lt;br&gt;&lt;i&gt;Unknown intermidiaries&lt;/i&gt;" style="sketch=0;outlineConnect=0;fontColor=#232F3E;gradientColor=none;fillColor=#232F3D;strokeColor=none;dashed=0;verticalLabelPosition=bottom;verticalAlign=top;align=center;html=1;fontSize=14;fontStyle=0;aspect=fixed;pointerEvents=1;shape=mxgraph.aws4.servers;" parent="1" vertex="1">
                    <mxGeometry x="390" y="235" width="38" height="38" as="geometry"/>
                </mxCell>
                <mxCell id="48" value="" style="edgeStyle=none;html=1;" parent="1" source="46" target="14" edge="1">
                    <mxGeometry relative="1" as="geometry"/>
                </mxCell>
                <mxCell id="57" value="" style="edgeStyle=none;html=1;" parent="1" source="46" target="14" edge="1">
                    <mxGeometry relative="1" as="geometry"/>
                </mxCell>
                <mxCell id="75" value="" style="html=1;entryX=0.028;entryY=0.512;entryDx=0;entryDy=0;entryPerimeter=0;edgeStyle=orthogonalEdgeStyle;" parent="1" source="46" target="72" edge="1">
                    <mxGeometry relative="1" as="geometry">
                        <mxPoint x="846.25" y="211" as="targetPoint"/>
                        <Array as="points">
                            <mxPoint x="846" y="240"/>
                            <mxPoint x="1100" y="240"/>
                            <mxPoint x="1100" y="301"/>
                        </Array>
                    </mxGeometry>
                </mxCell>
                <mxCell id="46" value="&lt;span style=&quot;background-color: light-dark(#ffffff, var(--ge-dark-color, #121212));&quot;&gt;Nginx&lt;/span&gt;" style="shape=image;html=1;verticalLabelPosition=bottom;verticalAlign=top;imageAspect=0;image=img/clipart/Gear_128x128.png;fontStyle=1;fontSize=14;" parent="1" vertex="1">
                    <mxGeometry x="830" y="280.5" width="32.5" height="39" as="geometry"/>
                </mxCell>
                <mxCell id="54" value="" style="edgeStyle=orthogonalEdgeStyle;html=1;entryX=0;entryY=0.5;entryDx=0;entryDy=0;" parent="1" source="51" target="53" edge="1">
                    <mxGeometry relative="1" as="geometry"/>
                </mxCell>
                <mxCell id="51" value="Google VM Instance" style="image;points=[];aspect=fixed;html=1;align=center;shadow=0;dashed=0;image=img/lib/allied_telesis/computer_and_terminals/Server_Desktop.svg;fontSize=14;" parent="1" vertex="1">
                    <mxGeometry x="550" y="273" width="42.599999999999994" height="54" as="geometry"/>
                </mxCell>
                <mxCell id="56" value="" style="edgeStyle=none;html=1;" parent="1" source="53" target="46" edge="1">
                    <mxGeometry relative="1" as="geometry"/>
                </mxCell>
                <mxCell id="53" value="&lt;font style=&quot;&quot;&gt;&lt;font style=&quot;font-size: 14px;&quot;&gt;&lt;b style=&quot;&quot;&gt;TON Reverse Proxy&lt;br&gt;&lt;/b&gt;&lt;/font&gt;&lt;i style=&quot;&quot;&gt;&lt;font&gt;&lt;br&gt;&lt;/font&gt;&lt;/i&gt;&lt;/font&gt;&lt;div&gt;&lt;font style=&quot;&quot;&gt;&lt;i style=&quot;&quot;&gt;&lt;font&gt;enables access&lt;/font&gt;&lt;/i&gt;&lt;/font&gt;&lt;div&gt;&lt;i&gt;&lt;font&gt;to the TON WWW&lt;br&gt;via linkin this machine&lt;/font&gt;&lt;/i&gt;&lt;/div&gt;&lt;div&gt;&lt;i style=&quot;&quot;&gt;&lt;font&gt;and ADNL address&lt;/font&gt;&lt;/i&gt;&lt;/div&gt;&lt;/div&gt;" style="shape=image;html=1;verticalLabelPosition=bottom;verticalAlign=top;imageAspect=0;image=img/clipart/Gear_128x128.png" parent="1" vertex="1">
                    <mxGeometry x="700" y="280.5" width="32.5" height="39" as="geometry"/>
                </mxCell>
                <mxCell id="76" value="" style="edgeStyle=none;html=1;" parent="1" source="72" target="16" edge="1">
                    <mxGeometry relative="1" as="geometry"/>
                </mxCell>
                <mxCell id="72" value="AWS EC2 Instance" style="image;points=[];aspect=fixed;html=1;align=center;shadow=0;dashed=0;image=img/lib/allied_telesis/computer_and_terminals/Server_Desktop.svg;fontSize=14;" parent="1" vertex="1">
                    <mxGeometry x="1130" y="273" width="42.599999999999994" height="54" as="geometry"/>
                </mxCell>
            </root>
        </mxGraphModel>
    </diagram>
</mxfile>